<svg width="122" height="40" viewBox="0 0 122 40" fill="none" xmlns="http://www.w3.org/2000/svg">
<g clip-path="url(#clip0_235_1272)">
<path fill-rule="evenodd" clip-rule="evenodd" d="M57.34 9V11.53H59.53V16.7H58.16C57.91 15.38 57.31 14.28 56.37 13.4C55.42 12.52 54.34 12.09 53.14 12.09C51.75 12.09 50.55 12.66 49.53 13.79C48.52 14.92 48.01 16.28 48.01 17.85C48.01 19.42 48.52 20.78 49.53 21.9C50.54 23.02 51.75 23.59 53.14 23.59C54.37 23.59 55.47 23.14 56.43 22.23C57.4 21.32 57.98 20.19 58.18 18.83H59.53V31.01H61.94C62.06 30.34 62.11 29.5 62.11 28.5V9H57.34ZM54.88 20.42C54.41 21.13 53.83 21.49 53.13 21.49C52.43 21.49 51.85 21.14 51.38 20.42C50.91 19.71 50.67 18.85 50.67 17.85C50.67 16.85 50.91 15.98 51.38 15.27C51.85 14.55 52.43 14.19 53.13 14.19C53.83 14.19 54.41 14.55 54.88 15.27C55.35 15.99 55.59 16.85 55.59 17.85C55.59 18.85 55.35 19.71 54.88 20.42ZM62.5 9V11.53H63.41V31H65.82C65.94 30.33 65.99 29.49 65.99 28.49V9H62.49H62.5Z" fill="#231F20"/>
<path fill-rule="evenodd" clip-rule="evenodd" d="M117.26 9V11.53H119.28V21.44H121.83C121.95 20.77 122 19.93 122 18.93V9.01H117.26V9ZM108.83 24.88V30.24C108.83 30.45 108.9 30.63 109.03 30.78C109.15 30.92 109.33 31.01 109.51 31.01H121.88V22.64H108.82V24.89L108.83 24.88ZM111.53 28.87H119.2V24.76H111.53V28.87ZM114.42 18.87C115.45 17.79 115.96 16.49 115.96 15C115.96 13.51 115.45 12.19 114.42 11.1C113.39 10.02 112.16 9.47 110.72 9.47C109.28 9.47 108.05 10.01 107.03 11.1C106.01 12.18 105.5 13.48 105.5 15C105.5 16.52 106.01 17.81 107.04 18.89C108.07 19.97 109.3 20.5 110.72 20.5C112.14 20.5 113.4 19.96 114.42 18.87ZM108.92 17.41C108.43 16.76 108.19 15.95 108.19 15C108.19 14.05 108.43 13.23 108.92 12.57C109.41 11.91 110 11.58 110.72 11.58C111.44 11.58 112.03 11.91 112.52 12.57C113.01 13.23 113.25 14.04 113.25 15C113.25 15.96 113.01 16.76 112.52 17.41C112.03 18.06 111.44 18.39 110.72 18.39C110 18.39 109.41 18.06 108.92 17.41ZM102.5 11.52V8.99H97.76V11.52H99.78V21.79C98.7 22.05 97.59 22.18 96.48 22.17H89.78V18.3H96.5V16.29H89.78V12.56H96.8V10.43H87.06V23.56C87.06 23.75 87.13 23.92 87.26 24.07C87.38 24.21 87.56 24.3 87.74 24.3H96.24C97.51 24.3 98.69 24.11 99.77 23.73V31H102.32C102.43 30.33 102.49 29.49 102.49 28.49V18.02H105.27V15.89H102.49V11.53L102.5 11.52ZM80.57 8.99V11.52H82.55V15.93H78.95V14.1V11.57H74.25V14.1H76.24V15.93H71.69V11.57H66.99V14.1H68.99V23.56C68.99 23.75 69.06 23.92 69.19 24.07C69.32 24.22 69.48 24.3 69.65 24.3H78.93V18.06H82.53V31H85.08C85.19 30.33 85.25 29.5 85.25 28.49V9H80.55L80.57 8.99ZM71.71 22.19H76.26V18.05H71.71V22.19Z" fill="#231F20"/>
<path fill-rule="evenodd" clip-rule="evenodd" d="M20 0.5C9.25 0.5 0.5 9.25 0.5 20C0.5 30.75 9.24 39.5 20 39.5C30.76 39.5 39.49 30.76 39.49 20C39.49 9.24 30.75 0.5 20 0.5ZM20 40C8.97 40 0 31.03 0 20C0 8.97 8.97 0 20 0C31.03 0 40 8.97 40 20C40 31.03 31.03 40 20 40Z" fill="#939597"/>
<path fill-rule="evenodd" clip-rule="evenodd" d="M39 6.5C39 8.99 36.98 11 34.5 11C32.02 11 30 8.99 30 6.5C30 4.02 32.01 2 34.5 2C36.99 2 39 4.02 39 6.5Z" fill="#FEFEFE"/>
<path fill-rule="evenodd" clip-rule="evenodd" d="M38 6.5C38 8.43 36.43 10 34.5 10C32.57 10 31 8.43 31 6.5C31 4.57 32.57 3 34.5 3C36.43 3 38 4.57 38 6.5Z" fill="#39934B"/>
<path fill-rule="evenodd" clip-rule="evenodd" d="M35 20C35 28.28 28.28 35 20 35C11.72 35 5 28.28 5 20C5 11.72 11.71 5 20 5C28.29 5 35 11.72 35 20Z" fill="#277436"/>
<path fill-rule="evenodd" clip-rule="evenodd" d="M20 34C12.27 34 6 27.73 6 20C6 12.27 12.27 6 20 6C27.73 6 34 12.27 34 20C34 27.73 27.73 34 20 34Z" fill="#39934B"/>
</g>
<defs>
<clipPath id="clip0_235_1272">
<rect width="122" height="40" fill="white"/>
</clipPath>
</defs>
</svg>
